HIERARCHY
ROOT Hips
{
	OFFSET	0.00	0.00	0.00
	CHANNELS 6 Xposition Yposition Zposition Zrotation Xrotation Yrotation
	JOINT LeftUpLeg
	{
		OFFSET	 0.126116	-0.014019	-0.065224
		CHANNELS 3 Zrotation Xrotation Yrotation
		JOINT LeftLeg
		{
			OFFSET	 0.000000	 0.000000	 0.569914
			CHANNELS 3 Zrotation Xrotation Yrotation
			JOINT LeftFoot
			{
				OFFSET	 0.000000	 0.000000	 0.544423
				CHANNELS 3 Zrotation Xrotation Yrotation
				JOINT LeftToeBase
				{
					OFFSET	 0.000000	 0.000000	 0.207117
					CHANNELS 3 Zrotation Xrotation Yrotation
					End Site
					{
						OFFSET	 0.000000	 0.000000	 0.207117
					}
				}
			}
		}
	}
	JOINT RightUpLeg
	{
		OFFSET	-0.124023	-0.008373	-0.065224
		CHANNELS 3 Zrotation Xrotation Yrotation
		JOINT RightLeg
		{
			OFFSET	 0.000000	 0.000000	 0.570047
			CHANNELS 3 Zrotation Xrotation Yrotation
			JOINT RightFoot
			{
				OFFSET	 0.000000	 0.000000	 0.544354
				CHANNELS 3 Zrotation Xrotation Yrotation
				JOINT RightToeBase
				{
					OFFSET	 0.000000	 0.000000	 0.207540
					CHANNELS 3 Zrotation Xrotation Yrotation
					End Site
					{
						OFFSET	 0.000000	 0.000000	 0.207540
					}
				}
			}
		}
	}
	JOINT Spine
	{
		OFFSET	 0.000184	-0.007763	 0.117403
		CHANNELS 3 Zrotation Xrotation Yrotation
		JOINT Spine1
		{
			OFFSET	 0.000000	 0.000000	 0.137269
			CHANNELS 3 Zrotation Xrotation Yrotation
			JOINT Spine2
			{
				OFFSET	 0.000000	 0.000000	 0.156879
				CHANNELS 3 Zrotation Xrotation Yrotation
				JOINT LeftShoulder
				{
					OFFSET	 0.080501	-0.002496	 0.160144
					CHANNELS 3 Zrotation Xrotation Yrotation
					JOINT LeftArm
					{
						OFFSET	 0.000000	 0.000000	 0.164363
						CHANNELS 3 Zrotation Xrotation Yrotation
						JOINT LeftForeArm
						{
							OFFSET	 0.000000	 0.000000	 0.364576
							CHANNELS 3 Zrotation Xrotation Yrotation
							JOINT LeftHand
							{
								OFFSET	 0.000000	 0.000000	 0.360812
								CHANNELS 3 Zrotation Xrotation Yrotation
								JOINT LeftHandIndex1
								{
									OFFSET	 0.000000	 0.000000	 0.086006
									CHANNELS 3 Zrotation Xrotation Yrotation
									JOINT LeftHandIndex2
									{
										OFFSET	 0.000000	 0.000000	 0.047236
										CHANNELS 3 Zrotation Xrotation Yrotation
										JOINT LeftHandIndex3
										{
											OFFSET	-0.004284	-0.000551	 0.038166
											CHANNELS 3 Zrotation Xrotation Yrotation
											End Site
											{
												OFFSET	-0.004284	-0.000551	 0.038166
											}
										}
									}
								}
							}
						}
					}
				}
				JOINT Neck
				{
					OFFSET	 0.000000	 0.000000	 0.176489
					CHANNELS 3 Zrotation Xrotation Yrotation
					JOINT Head
					{
						OFFSET	 0.000000	-0.001747	 0.077940
						CHANNELS 3 Zrotation Xrotation Yrotation
						End Site
						{
							OFFSET	 0.000000	-0.001747	 0.077940
						}
					}
				}
				JOINT RightShoulder
				{
					OFFSET	-0.080363	 0.000306	 0.159706
					CHANNELS 3 Zrotation Xrotation Yrotation
					JOINT RightArm
					{
						OFFSET	 0.000000	 0.000000	 0.164196
						CHANNELS 3 Zrotation Xrotation Yrotation
						JOINT RightForeArm
						{
							OFFSET	 0.000000	 0.000000	 0.365611
							CHANNELS 3 Zrotation Xrotation Yrotation
							JOINT RightHand
							{
								OFFSET	 0.000000	 0.000000	 0.360648
								CHANNELS 3 Zrotation Xrotation Yrotation
								JOINT RightHandIndex1
								{
									OFFSET	 0.000000	 0.000000	 0.069977
									CHANNELS 3 Zrotation Xrotation Yrotation
									JOINT RightHandIndex2
									{
										OFFSET	 0.000000	 0.000000	 0.052305
										CHANNELS 3 Zrotation Xrotation Yrotation
										JOINT RightHandIndex3
										{
											OFFSET	 0.009002	-0.000782	 0.042196
											CHANNELS 3 Zrotation Xrotation Yrotation
											End Site
											{
												OFFSET	 0.009002	-0.000782	 0.042196
											}
										}
									}
								}
							}
						}
					}
				}
			}
		}
	}
}
MOTION
Frames:    10
Frame Time: 0.03333334
 0.102430	-0.041806	 0.936834	 95.689240	 0.640239	 3.606416	 5.057377	-3.874517	 176.457700	-11.493610	-35.096140	-5.530150	 171.968500	 86.721110	 179.306500	-2.377854	 30.106820	-0.036167	 1.814599	-12.609380	 178.835600	 4.001338	-49.911320	 6.266366	-175.079100	 82.241690	-178.967700	 2.403655	 22.153860	-0.130008	-0.854090	 0.407062	-1.770680	-0.384391	-2.418854	-0.196792	-0.006558	-4.638392	-0.000699	-91.809310	 77.648770	 179.108100	 45.375340	 73.711740	-48.071170	-9.810308	-4.160845	-20.862830	 5.206107	-10.074230	-5.412643	-3.812334	 37.924440	-2.927599	-2.450526	 36.184240	 0.754587	-1.378229	 35.397820	-2.634230	 0.599821	 6.724001	-3.269327	 0.356094	-14.420840	-1.510813	 89.766690	 79.226750	-179.661000	-44.890010	 74.170740	 46.969790	 4.572301	-9.354481	 32.807040	-11.900530	-10.968770	 9.762220	 6.437017	 35.671460	-0.771858	 2.830251	 35.756010	-7.813440	-2.350882	 35.473990	 5.254307
 0.113737	-0.040522	 0.935297	 90.732110	 0.665703	 3.698822	 5.051027	-3.996873	 176.481300	-11.233680	-33.762910	-5.154617	 171.929700	 86.563280	 179.424200	-2.377454	 30.184720	-0.037888	 1.762130	-12.671670	 178.963400	 3.660217	-47.642950	 5.722699	-175.410600	 82.089350	-178.648300	 2.403713	 22.121560	-0.130655	-0.848814	 0.493799	-1.848516	-0.382790	-2.362870	-0.205772	-0.036648	-4.465439	-0.003844	-91.809810	 77.615220	 179.126500	 36.755860	 69.875210	-39.779920	-7.980803	-4.003860	-19.905520	 5.156705	-10.076800	-5.414762	-3.812334	 37.924440	-2.927599	-2.450526	 36.184240	 0.754587	-1.378229	 35.397820	-2.634230	 0.525700	 6.066068	-3.201157	 0.289911	-13.400500	-1.599265	 89.765410	 79.260320	-179.645800	-36.406560	 70.341090	 39.108540	 4.232900	-7.818283	 30.682820	-9.981363	-10.979140	 9.761855	 6.437017	 35.671460	-0.771858	 2.830251	 35.756010	-7.813440	-2.350882	 35.473990	 5.254307
 0.112697	-0.039668	 0.934969	 90.885510	 0.706272	 3.700649	 5.036786	-4.104911	 176.499300	-11.153560	-33.901820	-5.136564	 171.978800	 86.423360	 179.438800	-2.376809	 30.304560	-0.040553	 1.770821	-12.723730	 178.982100	 3.693750	-47.755700	 5.769019	-175.619700	 81.913320	-178.422200	 2.403634	 22.165760	-0.129762	-0.856662	 0.517111	-1.886221	-0.405480	-2.349951	-0.209888	-0.084798	-4.451303	-0.008880	-91.809730	 77.596410	 179.144500	 36.644250	 69.854610	-39.624340	-8.026574	-4.023491	-20.158320	 5.106575	-10.086360	-5.416273	-3.812334	 37.924440	-2.927599	-2.450526	 36.184240	 0.754587	-1.378229	 35.397820	-2.634230	 0.478183	 5.990452	-3.234751	 0.242563	-13.298740	-1.571446	 89.764780	 79.277470	-179.639000	-36.320830	 70.405470	 39.060490	 4.262665	-7.781539	 30.440570	-10.006200	-10.992930	 9.761948	 6.437017	 35.671460	-0.771858	 2.830251	 35.756010	-7.813440	-2.350882	 35.473990	 5.254307
 0.104946	-0.038512	 0.934545	 91.027980	 0.764457	 3.733700	 5.016297	-4.252836	 176.523700	-11.045940	-34.103490	-5.115031	 171.969600	 86.240430	 179.532100	-2.376055	 30.446920	-0.043705	 1.840961	-12.826650	 178.972800	 3.793598	-48.003650	 5.920411	-175.984100	 81.666380	-177.983700	 2.403589	 22.187080	-0.129335	-0.858078	 0.521028	-1.925425	-0.411013	-2.349348	-0.239728	-0.108387	-4.451976	-0.011352	-91.809120	 77.601010	 179.156800	 36.591050	 69.800330	-39.591060	-8.080777	-4.038560	-20.434390	 5.034427	-10.105430	-5.418373	-3.812334	 37.924440	-2.927599	-2.450526	 36.184240	 0.754587	-1.378229	 35.397820	-2.634230	 0.467821	 5.830016	-3.414670	 0.242364	-13.139690	-1.373799	 89.764230	 79.272550	-179.625400	-36.259800	 70.461990	 39.032340	 4.263946	-7.742351	 30.157730	-10.041580	-11.018790	 9.761834	 6.437017	 35.671460	-0.771858	 2.830251	 35.756010	-7.813440	-2.350882	 35.473990	 5.254307
 0.101019	-0.037562	 0.934254	 91.085340	 0.798422	 3.738299	 5.002343	-4.355008	 176.545000	-10.964520	-34.249570	-5.096122	 171.953400	 86.115620	 179.613200	-2.375530	 30.543750	-0.045864	 1.866642	-12.948190	 178.968800	 3.943437	-48.274210	 6.082230	-176.101600	 81.502340	-177.782400	 2.403450	 22.269100	-0.127674	-0.852249	 0.545718	-1.926982	-0.412905	-2.370030	-0.263447	-0.120536	-4.478057	-0.012652	-91.808040	 77.621970	 179.166600	 36.589160	 69.747960	-39.640160	-8.114305	-4.043443	-20.593170	 4.982555	-10.123010	-5.419883	-3.812334	 37.924440	-2.927599	-2.450526	 36.184240	 0.754587	-1.378229	 35.397820	-2.634230	 0.464302	 5.668050	-3.506659	 0.237971	-13.029110	-1.293639	 89.764490	 79.249920	-179.622500	-36.274290	 70.490070	 39.102410	 4.244249	-7.728126	 29.976920	-10.084280	-11.041490	 9.761740	 6.437017	 35.671460	-0.771858	 2.830251	 35.756010	-7.813440	-2.350882	 35.473990	 5.254307
 0.100834	-0.035995	 0.933858	 91.099100	 0.822696	 3.722530	 5.015114	-4.485745	 176.588900	-10.872910	-34.442790	-5.060081	 172.048400	 85.954940	 179.621400	-2.374912	 30.655760	-0.048361	 1.927392	-13.203310	 178.990000	 4.141231	-48.803530	 6.339934	-176.191400	 81.313570	-177.582600	 2.402936	 22.543040	-0.122135	-0.853679	 0.625116	-1.893358	-0.449504	-2.397496	-0.287869	-0.186171	-4.513799	-0.019597	-91.805760	 77.667470	 179.186200	 36.601040	 69.663150	-39.751180	-8.152889	-4.044506	-20.764940	 4.914770	-10.152280	-5.421909	-3.812334	 37.924440	-2.927599	-2.450526	 36.184240	 0.754587	-1.378229	 35.397820	-2.634230	 0.393534	 5.533878	-3.487277	 0.167440	-12.969040	-1.374518	 89.765090	 79.201930	-179.617300	-36.342620	 70.525540	 39.304180	 4.214818	-7.723291	 29.751200	-10.162190	-11.077290	 9.761846	 6.437017	 35.671460	-0.771858	 2.830251	 35.756010	-7.813440	-2.350882	 35.473990	 5.254307
 0.101017	-0.034306	 0.933471	 91.058270	 0.830873	 3.679934	 5.072860	-4.595616	 176.675700	-10.816090	-34.614230	-5.008859	 172.238300	 85.813530	 179.551300	-2.374491	 30.731940	-0.050062	 2.067163	-13.574870	 179.054700	 4.284574	-49.515560	 6.642111	-176.246400	 81.188000	-177.427700	 2.402015	 23.005900	-0.112737	-0.868841	 0.758486	-1.816952	-0.525540	-2.413249	-0.302873	-0.300559	-4.537246	-0.031697	-91.802840	 77.725920	 179.215300	 36.619910	 69.568870	-39.895610	-8.182035	-4.041366	-20.885910	 4.855490	-10.186180	-5.423752	-3.812334	 37.924440	-2.927599	-2.450526	 36.184240	 0.754587	-1.378229	 35.397820	-2.634230	 0.259862	 5.568405	-3.339627	 0.038287	-13.056660	-1.618506	 89.766260	 79.141040	-179.619500	-36.400550	 70.559620	 39.499310	 4.207153	-7.714872	 29.555370	-10.221120	-11.116370	 9.762305	 6.437017	 35.671460	-0.771858	 2.830251	 35.756010	-7.813440	-2.350882	 35.473990	 5.254307
 0.101191	-0.032594	 0.933101	 90.986080	 0.839721	 3.598329	 5.174133	-4.680907	 176.795900	-10.794590	-34.756100	-4.943776	 172.400500	 85.693930	 179.518400	-2.374226	 30.780170	-0.051140	 2.175893	-14.059210	 179.155900	 4.462925	-50.397210	 6.976482	-176.275300	 81.135120	-177.321000	 2.400691	 23.604760	-0.100519	-0.874791	 0.931720	-1.700760	-0.592495	-2.438232	-0.306246	-0.399218	-4.573444	-0.042228	-91.799710	 77.791640	 179.247800	 36.663150	 69.466840	-40.101060	-8.202585	-4.035737	-20.962970	 4.806609	-10.223360	-5.425358	-3.812334	 37.924440	-2.927599	-2.450526	 36.184240	 0.754587	-1.378229	 35.397820	-2.634230	 0.140609	 5.591078	-3.180362	-0.076439	-13.156330	-1.859040	 89.767950	 79.071550	-179.631600	-36.469380	 70.587640	 39.705800	 4.210090	-7.703274	 29.385340	-10.263500	-11.157510	 9.762877	 6.437017	 35.671460	-0.771858	 2.830251	 35.756010	-7.813440	-2.350882	 35.473990	 5.254307
 0.101376	-0.030499	 0.932659	 90.881610	 0.847601	 3.451411	 5.354056	-4.752063	 176.963900	-10.822810	-34.885110	-4.853913	 173.163300	 85.576010	 178.930300	-2.373797	 30.856620	-0.052855	 2.244460	-14.789690	 179.355100	 4.732990	-51.676320	 7.416044	-176.203200	 81.169880	-177.332500	 2.398250	 24.570680	-0.080656	-0.864392	 1.166777	-1.514678	-0.649202	-2.485146	-0.289853	-0.474095	-4.645465	-0.050445	-91.796130	 77.876370	 179.281600	 36.728170	 69.337490	-40.396080	-8.225092	-4.024651	-21.009470	 4.753878	-10.271870	-5.427023	-3.812334	 37.924440	-2.927599	-2.450526	 36.184240	 0.754587	-1.378229	 35.397820	-2.634230	 0.058697	 5.526817	-3.153312	-0.146842	-13.239990	-1.957907	 89.770470	 78.980950	-179.659500	-36.576710	 70.613500	 39.982830	 4.221061	-7.686297	 29.205490	-10.298470	-11.209210	 9.763696	 6.437017	 35.671460	-0.771858	 2.830251	 35.756010	-7.813440	-2.350882	 35.473990	 5.254307
 0.101596	-0.028306	 0.932181	 90.751870	 0.863748	 3.251327	 5.596622	-4.788123	 177.177200	-10.917590	-34.969950	-4.753912	 174.057300	 85.481860	 178.216300	-2.373098	 30.981780	-0.055648	 2.280825	-15.718920	 179.626900	 5.112332	-53.244090	 7.965934	-176.103800	 81.318020	-177.380800	 2.393932	 25.994050	-0.051016	-0.838776	 1.397324	-1.275356	-0.688466	-2.519015	-0.248723	-0.518047	-4.728889	-0.055497	-91.792790	 77.968740	 179.303400	 36.794670	 69.198670	-40.729890	-8.247326	-4.009632	-21.013980	 4.705853	-10.325960	-5.428434	-3.812334	 37.924440	-2.927599	-2.450526	 36.184240	 0.754587	-1.378229	 35.397820	-2.634230	 0.015537	 5.442951	-3.178210	-0.179691	-13.328530	-2.013129	 89.772670	 78.884100	-179.683900	-36.722780	 70.631670	 40.311790	 4.236679	-7.667957	 29.046860	-10.321430	-11.264470	 9.764917	 6.437017	 35.671460	-0.771858	 2.830251	 35.756010	-7.813440	-2.350882	 35.473990	 5.254307
